<svg width="25" height="18" viewBox="0 0 25 18" fill="none" xmlns="http://www.w3.org/2000/svg">
<path d="M23.6719 2.5125L18.75 5.175V1.5C18.75 1.10218 18.5854 0.720644 18.2924 0.43934C17.9993 0.158035 17.6019 0 17.1875 0H3.125C2.2962 0 1.50134 0.31607 0.915291 0.87868C0.32924 1.44129 0 2.20435 0 3V15C0 15.7956 0.32924 16.5587 0.915291 17.1213C1.50134 17.6839 2.2962 18 3.125 18H17.1875C17.6019 18 17.9993 17.842 18.2924 17.5607C18.5854 17.2794 18.75 16.8978 18.75 16.5V12.81L23.6719 15.4725C23.7981 15.5517 23.9439 15.5976 24.0945 15.6056C24.2451 15.6136 24.3953 15.5834 24.5299 15.518C24.6645 15.4527 24.7788 15.3544 24.8613 15.2332C24.9438 15.112 24.9917 14.9721 25 14.8275V3.15C24.9904 3.00606 24.9416 2.86706 24.8586 2.74686C24.7755 2.62666 24.6611 2.52946 24.5267 2.46496C24.3923 2.40045 24.2427 2.3709 24.0927 2.37924C23.9427 2.38758 23.7976 2.43353 23.6719 2.5125Z" fill="#F2F2F2"/>
</svg>
