<svg width="15" height="10" viewBox="0 0 15 10" fill="none" xmlns="http://www.w3.org/2000/svg">
<path d="M6.30669 8.925L0.311688 2.0725C-0.395811 1.26625 0.179188 4.59632e-07 1.25294 4.59632e-07H13.2429C13.4832 -0.000205574 13.7185 0.0688598 13.9206 0.198926C14.1226 0.328993 14.2829 0.514546 14.3822 0.733366C14.4816 0.952187 14.5157 1.195 14.4806 1.43272C14.4455 1.67045 14.3426 1.89301 14.1842 2.07375L8.18919 8.92375C8.07186 9.05801 7.92717 9.16562 7.76483 9.23935C7.60248 9.31308 7.42624 9.35123 7.24794 9.35123C7.06964 9.35123 6.8934 9.31308 6.73105 9.23935C6.56871 9.16562 6.42402 9.05801 6.30669 8.92375V8.925Z" fill="#F2F2F2"/>
</svg>
