<svg width="19" height="19" viewBox="0 0 19 19" fill="none" xmlns="http://www.w3.org/2000/svg">
<path d="M18.2927 3.91178L15.0389 0.646243C14.6142 0.245912 14.0578 0.016208 13.4753 0.000825629C12.8929 -0.0145567 12.3252 0.185456 11.8801 0.562817L1.1925 11.289C0.808659 11.6775 0.569659 12.1867 0.515622 12.7311L0.00499106 17.7009C-0.011006 17.8755 0.0115632 18.0514 0.0710895 18.2162C0.130616 18.381 0.225633 18.5306 0.34937 18.6544C0.460331 18.7648 0.591927 18.8522 0.73661 18.9115C0.881294 18.9708 1.03622 19.0009 1.1925 19H1.29938L6.25131 18.5471C6.79376 18.4929 7.30111 18.253 7.6882 17.8678L18.3758 7.14156C18.7906 6.70175 19.0148 6.11483 18.9992 5.50943C18.9837 4.90403 18.7296 4.32951 18.2927 3.91178ZM14.2551 7.89239L11.0726 4.69837L13.3883 2.31476L16.6302 5.56838L14.2551 7.89239Z" fill="#F2F2F2"/>
</svg>
