<svg width="21" height="20" viewBox="0 0 21 20" fill="none" xmlns="http://www.w3.org/2000/svg">
<path d="M20.6562 3.14453V14.082C20.6556 14.7034 20.4084 15.2992 19.969 15.7385C19.5296 16.1779 18.9339 16.4251 18.3125 16.4258H2.6875C2.06611 16.4251 1.47038 16.1779 1.03099 15.7385C0.591602 15.2992 0.344448 14.7034 0.34375 14.082V3.14453C0.344448 2.52314 0.591602 1.92741 1.03099 1.48802C1.47038 1.04863 2.06611 0.801479 2.6875 0.800781H18.3125C18.9339 0.801479 19.5296 1.04863 19.969 1.48802C20.4084 1.92741 20.6556 2.52314 20.6562 3.14453ZM13.625 17.9883H7.375C7.1678 17.9883 6.96909 18.0706 6.82257 18.2171C6.67606 18.3636 6.59375 18.5623 6.59375 18.7695C6.59375 18.9767 6.67606 19.1754 6.82257 19.322C6.96909 19.4685 7.1678 19.5508 7.375 19.5508H13.625C13.8322 19.5508 14.0309 19.4685 14.1774 19.322C14.3239 19.1754 14.4062 18.9767 14.4062 18.7695C14.4062 18.5623 14.3239 18.3636 14.1774 18.2171C14.0309 18.0706 13.8322 17.9883 13.625 17.9883Z" fill="#F2F2F2"/>
</svg>
