<svg width="19" height="25" viewBox="0 0 19 25" fill="none" xmlns="http://www.w3.org/2000/svg">
<path d="M16.9406 17.8704L12.9948 15.8804C12.6226 15.6925 12.3913 15.315 12.3913 14.895V13.4862C12.4859 13.3696 12.5854 13.2367 12.6883 13.09C13.2 12.3608 13.6102 11.5492 13.9084 10.6737C14.4912 10.4042 14.8696 9.82292 14.8696 9.16667V7.5C14.8696 7.09875 14.7209 6.71 14.4565 6.40625V4.19C14.4797 3.96083 14.5705 2.59667 13.5924 1.47125C12.744 0.495 11.3674 0 9.5 0C7.63263 0 6.25596 0.495 5.40757 1.47083C4.42948 2.59625 4.52035 3.96083 4.54348 4.19V6.40625C4.27913 6.71 4.13043 7.09875 4.13043 7.5V9.16667C4.13043 9.67375 4.35885 10.1467 4.74876 10.4621C5.12711 11.9733 5.91891 13.1121 6.19565 13.4775V14.8562C6.19565 15.2596 5.97756 15.6296 5.62689 15.8229L1.94213 17.8504C0.743891 18.51 0 19.7742 0 21.1508V22.5C0 24.4775 6.21424 25 9.5 25C12.7858 25 19 24.4775 19 22.5V21.2321C19 19.7996 18.2107 18.5112 16.9406 17.8704Z" fill="#4F4F4F"/>
</svg>
